<svg width="120" height="764" viewBox="0 0 120 764" fill="none" xmlns="http://www.w3.org/2000/svg">
<g filter="url(#filter0_f_4_343)">
<path d="M25.2812 739.062V703.766C25.2812 696.078 27.1094 690.328 30.7656 686.516C34.4219 682.672 39.625 680.75 46.375 680.75C53.3125 680.75 58.7344 682.844 62.6406 687.031C66.5469 691.188 68.5 697.547 68.5 706.109V717.734H94V739.062H25.2812ZM54.5781 717.734V712.531C54.5781 708.438 53.875 705.562 52.4688 703.906C51.0312 702.25 49.2031 701.422 46.9844 701.422C44.8281 701.422 43 702.141 41.5 703.578C40 705.016 39.25 707.719 39.25 711.688V717.734H54.5781ZM59.6875 672.266C48.4688 672.266 39.7344 669.141 33.4844 662.891C27.2344 656.641 24.1094 647.938 24.1094 636.781C24.1094 625.344 27.1875 616.531 33.3438 610.344C39.4688 604.156 48.0625 601.062 59.125 601.062C67.1563 601.062 73.75 602.422 78.9063 605.141C84.0313 607.828 88.0313 611.734 90.9063 616.859C93.75 621.953 95.1719 628.312 95.1719 635.938C95.1719 643.688 93.9375 650.109 91.4688 655.203C89 660.266 85.0938 664.375 79.75 667.531C74.4062 670.688 67.7188 672.266 59.6875 672.266ZM59.7812 651.031C66.7188 651.031 71.7031 649.75 74.7344 647.188C77.7656 644.594 79.2812 641.078 79.2812 636.641C79.2812 632.078 77.7969 628.547 74.8281 626.047C71.8594 623.547 66.5313 622.297 58.8438 622.297C52.375 622.297 47.6563 623.609 44.6875 626.234C41.6875 628.828 40.1875 632.359 40.1875 636.828C40.1875 641.109 41.7031 644.547 44.7344 647.141C47.7656 649.734 52.7813 651.031 59.7812 651.031ZM25.2813 589.625L25.2813 568.391H77.0781V535.25H94V589.625H25.2813ZM25.2813 524.75V503.469H94V524.75H25.2813ZM25.2813 456.031L25.2813 434.797H51.25L25.2813 412.531V384.312L51.2031 409.344L94 383.188L94 409.344L65.7344 423.828L77.2188 434.797H94V456.031H25.2813ZM59.6875 378.828C48.4688 378.828 39.7344 375.703 33.4844 369.453C27.2344 363.203 24.1094 354.5 24.1094 343.344C24.1094 331.906 27.1875 323.094 33.3438 316.906C39.4688 310.719 48.0625 307.625 59.125 307.625C67.1563 307.625 73.75 308.984 78.9063 311.703C84.0313 314.391 88.0313 318.297 90.9063 323.422C93.75 328.516 95.1719 334.875 95.1719 342.5C95.1719 350.25 93.9375 356.672 91.4688 361.766C89 366.828 85.0938 370.938 79.75 374.094C74.4063 377.25 67.7188 378.828 59.6875 378.828ZM59.7813 357.594C66.7188 357.594 71.7031 356.312 74.7344 353.75C77.7656 351.156 79.2813 347.641 79.2813 343.203C79.2813 338.641 77.7969 335.109 74.8281 332.609C71.8594 330.109 66.5313 328.859 58.8438 328.859C52.375 328.859 47.6563 330.172 44.6875 332.797C41.6875 335.391 40.1875 338.922 40.1875 343.391C40.1875 347.672 41.7031 351.109 44.7344 353.703C47.7656 356.297 52.7813 357.594 59.7813 357.594ZM25.2813 296.188V274.953H77.0781V241.812H94V296.188H25.2813ZM25.2813 232.203L25.2813 175.297H39.9531V210.922H50.875V177.875H64.8906V210.922H78.4375V174.266H94V232.203H25.2813ZM71.2656 166.484L70 146.281C73.2813 145.844 75.7813 144.953 77.5 143.609C80.2813 141.422 81.6719 138.297 81.6719 134.234C81.6719 131.203 80.9688 128.875 79.5625 127.25C78.125 125.594 76.4688 124.766 74.5938 124.766C72.8125 124.766 71.2188 125.547 69.8125 127.109C68.4063 128.672 67.0781 132.297 65.8281 137.984C63.7344 147.297 60.9531 153.938 57.4844 157.906C54.0156 161.906 49.5938 163.906 44.2188 163.906C40.6875 163.906 37.3594 162.891 34.2344 160.859C31.0781 158.797 28.6094 155.719 26.8281 151.625C25.0156 147.5 24.1094 141.859 24.1094 134.703C24.1094 125.922 25.75 119.234 29.0313 114.641C32.2813 110.016 37.4688 107.266 44.5938 106.391L45.7656 126.406C42.6719 126.938 40.4219 128.062 39.0156 129.781C37.6094 131.469 36.9063 133.812 36.9063 136.812C36.9063 139.281 37.4375 141.141 38.5 142.391C39.5313 143.641 40.7969 144.266 42.2969 144.266C43.3906 144.266 44.375 143.75 45.25 142.719C46.1563 141.719 47 139.344 47.7813 135.594C49.7813 126.312 51.8125 119.672 53.875 115.672C55.9063 111.641 58.4375 108.719 61.4688 106.906C64.5 105.062 67.8906 104.141 71.6406 104.141C76.0469 104.141 80.1094 105.359 83.8281 107.797C87.5469 110.234 90.375 113.641 92.3125 118.016C94.2188 122.391 95.1719 127.906 95.1719 134.562C95.1719 146.25 92.9219 154.344 88.4219 158.844C83.9219 163.344 78.2031 165.891 71.2656 166.484ZM59.6875 96.0781C48.4688 96.0781 39.7344 92.9531 33.4844 86.7031C27.2344 80.4531 24.1094 71.75 24.1094 60.5938C24.1094 49.1562 27.1875 40.3438 33.3438 34.1562C39.4688 27.9688 48.0625 24.875 59.125 24.875C67.1563 24.875 73.75 26.2344 78.9063 28.9531C84.0313 31.6406 88.0313 35.5469 90.9063 40.6719C93.75 45.7656 95.1719 52.125 95.1719 59.75C95.1719 67.5 93.9375 73.9219 91.4688 79.0156C89 84.0781 85.0938 88.1875 79.75 91.3438C74.4063 94.5 67.7188 96.0781 59.6875 96.0781ZM59.7813 74.8438C66.7188 74.8438 71.7031 73.5625 74.7344 71C77.7656 68.4062 79.2813 64.8906 79.2813 60.4531C79.2813 55.8906 77.7969 52.3594 74.8281 49.8594C71.8594 47.3594 66.5313 46.1094 58.8438 46.1094C52.375 46.1094 47.6563 47.4219 44.6875 50.0469C41.6875 52.6406 40.1875 56.1719 40.1875 60.6406C40.1875 64.9219 41.7031 68.3594 44.7344 70.9531C47.7656 73.5469 52.7813 74.8438 59.7813 74.8438Z" fill="#7D8183"/>
</g>
<defs>
<filter id="filter0_f_4_343" x="0.00937462" y="0.775" width="119.263" height="762.388" filterUnits="userSpaceOnUse" color-interpolation-filters="sRGB">
<feFlood flood-opacity="0" result="BackgroundImageFix"/>
<feBlend mode="normal" in="SourceGraphic" in2="BackgroundImageFix" result="shape"/>
<feGaussianBlur stdDeviation="12.05" result="effect1_foregroundBlur_4_343"/>
</filter>
</defs>
</svg>
